<?xml version="1.0" encoding="utf-8"?>
<!-- Generator: Adobe Illustrator 21.0.0, SVG Export Plug-In . SVG Version: 6.00 Build 0)  -->
<svg version="1.1" xmlns="http://www.w3.org/2000/svg" xmlns:xlink="http://www.w3.org/1999/xlink" x="0px" y="0px"
	 viewBox="0 0 1280 1024" style="enable-background:new 0 0 1280 1024;" xml:space="preserve">
<style type="text/css">
	.st0{display:none;}
	.st1{display:inline;fill:#E6E6E6;}
	.st2{display:inline;}
	.st3{fill:#465866;}
	.st4{fill:#89BDBD;}
	.st5{fill:#EEF1EB;}
	.st6{fill:#EAD1B5;}
	.st7{fill:#C35B67;}
	.st8{display:inline;fill:#182B44;}
	.st9{display:inline;fill:#5596A0;}
	.st10{display:inline;fill:#F0E5B7;}
	.st11{display:inline;fill:#E9A292;}
	.st12{display:inline;fill:#E06044;}
	.st13{fill:url(#SVGID_1_);}
	.st14{fill:url(#SVGID_2_);}
	.st15{fill:url(#SVGID_3_);}
	.st16{fill:url(#SVGID_4_);}
	.st17{fill:#5596A0;}
	.st18{fill:#E9A292;}
	.st19{fill:url(#SVGID_5_);}
	.st20{fill:#F0E5B7;}
	.st21{fill:#182B44;}
	.st22{fill:#FFFFFF;}
	.st23{fill:#C3D2DE;}
	.st24{fill:#22B573;}
	.st25{fill:#E06044;}
</style>
<g id="Camada_1" class="st0">
	<rect class="st1" width="1280" height="1024"/>
	<g class="st2">
		<rect x="173.9" y="31.6" transform="matrix(-1 -1.224647e-16 1.224647e-16 -1 388 76)" class="st3" width="40.2" height="12.8"/>
		
			<rect x="133.8" y="31.6" transform="matrix(-1 -1.224647e-16 1.224647e-16 -1 307.6669 76)" class="st4" width="40.2" height="12.8"/>
		
			<rect x="93.6" y="31.6" transform="matrix(-1 -1.224647e-16 1.224647e-16 -1 227.3338 76)" class="st5" width="40.2" height="12.8"/>
		
			<rect x="53.4" y="31.6" transform="matrix(-1 -1.224647e-16 1.224647e-16 -1 147.0007 76)" class="st6" width="40.2" height="12.8"/>
		
			<rect x="13.3" y="31.6" transform="matrix(-1 -1.224647e-16 1.224647e-16 -1 66.6676 76)" class="st7" width="40.2" height="12.8"/>
	</g>
	<rect x="173.9" y="13.9" transform="matrix(-1 -1.224647e-16 1.224647e-16 -1 388 38)" class="st8" width="40.2" height="10.2"/>
	
		<rect x="133.8" y="13.9" transform="matrix(-1 -1.224647e-16 1.224647e-16 -1 307.6669 38)" class="st9" width="40.2" height="10.2"/>
	
		<rect x="93.6" y="13.9" transform="matrix(-1 -1.224647e-16 1.224647e-16 -1 227.3338 38)" class="st10" width="40.2" height="10.2"/>
	
		<rect x="53.4" y="13.9" transform="matrix(-1 -1.224647e-16 1.224647e-16 -1 147.0007 38)" class="st11" width="40.2" height="10.2"/>
	
		<rect x="13.3" y="13.9" transform="matrix(-1 -1.224647e-16 1.224647e-16 -1 66.6677 38)" class="st12" width="40.2" height="10.2"/>
</g>
<g id="Camada_2">
	<g>
		<linearGradient id="SVGID_1_" gradientUnits="userSpaceOnUse" x1="948.8875" y1="285.0793" x2="1092.7101" y2="285.0793">
			<stop  offset="4.122173e-04" style="stop-color:#F0E5B7"/>
			<stop  offset="1" style="stop-color:#FFFFFF"/>
		</linearGradient>
		<polygon class="st13" points="1066.3,368.2 948.9,368.2 975.3,202 1092.7,202 		"/>
		<linearGradient id="SVGID_2_" gradientUnits="userSpaceOnUse" x1="1081.0322" y1="285.0793" x2="1224.8549" y2="285.0793">
			<stop  offset="4.122173e-04" style="stop-color:#F0E5B7"/>
			<stop  offset="1" style="stop-color:#FFFFFF"/>
		</linearGradient>
		<polygon class="st14" points="1198.4,368.2 1081,368.2 1107.5,202 1224.9,202 		"/>
		<linearGradient id="SVGID_3_" gradientUnits="userSpaceOnUse" x1="920" y1="462.9207" x2="1063.8226" y2="462.9207">
			<stop  offset="4.122173e-04" style="stop-color:#F0E5B7"/>
			<stop  offset="1" style="stop-color:#FFFFFF"/>
		</linearGradient>
		<polygon class="st15" points="1037.4,546 920,546 946.4,379.8 1063.8,379.8 		"/>
		<linearGradient id="SVGID_4_" gradientUnits="userSpaceOnUse" x1="1052.1448" y1="462.9207" x2="1195.9674" y2="462.9207">
			<stop  offset="4.122173e-04" style="stop-color:#F0E5B7"/>
			<stop  offset="1" style="stop-color:#FFFFFF"/>
		</linearGradient>
		<polygon class="st16" points="1169.5,546 1052.1,546 1078.6,379.8 1196,379.8 		"/>
	</g>
	<g>
		<path class="st17" d="M574.4,627.7c0,0,52.1-2.7,43.8-51.7c-8.3-49,39.6-65.3,50.7-81.6c11.1-16.3,11.1-58.8-50.7-80.6
			c-57.7-32.1-56.3-29.4-47.9-55.5c8.3-26.1,4.2-144.8-91-109.9c-45.9,32.1-11.1,73.5,6.3,91.4c17.4,18-43.1,4-37.5,40.9
			s99.4,79.3,90.3,107.1C476.4,519.4,444.5,542.8,574.4,627.7z"/>
		<path class="st5" d="M513.3,850h130.6c9.2,0,16.7-5.9,16.7-13.1l27.8-204.6c0-7.2-7.5-13.1-16.7-13.1H485.5
			c-9.2,0-16.7,5.9-16.7,13.1l27.8,204.6C496.6,844.1,504.1,850,513.3,850z"/>
		<path class="st3" d="M566,427.6c0,0-66.7-131.7-165.4-74s34.7,52.2,69.8,72.3s46.9,37,14.3,58.8c-32.7,21.8-4.9,53.9,36.1,65.9
			s45.9,62.6,45.2,68.6c34.7-59.3,141.7-144,32.7-172.4C566.7,433.6,566,427.6,566,427.6z"/>
		<path class="st18" d="M578.6,619.6c0,0,90.3-15.2,83.4-64.6s-61-68.7-6.2-118.3s3.4-154-18.8-105s-17.4,62.1-46.6,75.9
			s-87.8,87.3-48.1,129.3S578.6,619.6,578.6,619.6z"/>
	</g>
	<path class="st3" d="M1096.9,854l-222.6,2.4c-5,0.1-9.2-5.3-9.3-11.9l-29.2-223.7c-0.1-6.6,4-12,9-12.1l264.5-14.9
		c5-0.1,9.2,5.3,9.3,11.9L1106,841.9C1106,848.5,1102,853.9,1096.9,854z"/>
	<linearGradient id="SVGID_5_" gradientUnits="userSpaceOnUse" x1="640" y1="1024" x2="640" y2="641">
		<stop  offset="0" style="stop-color:#C3D2DE"/>
		<stop  offset="1" style="stop-color:#EEF1EB"/>
	</linearGradient>
	<path class="st19" d="M0,1024h1280V641c0,0-217,234-552,168C464.4,757.1,125,869,0,1024z"/>
	<g>
		<path class="st7" d="M812.6,707.9L786,763.7l79.7,58.6l-30.2,14.3c0,0-103.4-31.4-112.7-62.2c-6.1-20.3,39.2-75.3,39.2-75.3
			L812.6,707.9z"/>
		<path class="st20" d="M798.3,620.4c0,0,258-21,256-13.6c-2,7.4-22.4,216.7-22.4,216.7l-189.2,17.3L798.3,620.4z"/>
		<polygon class="st20" points="740.2,705.9 797.7,620.1 820,728 		"/>
		<path class="st18" d="M881.3,593.7l103.6-1.1l23.1,41.7l-35.5-9.1l-33.5,36.2c0,0-36.1-44.5-40-42.5c-3.9,2-30.5,11-30.5,11
			L881.3,593.7z"/>
		<polygon class="st7" points="936.8,639.2 905.1,608.7 908.5,579.9 967.2,578.3 969.2,612.6 		"/>
		<path class="st7" d="M874.7,546.6c-1.3,11.5,28.6,36.3,28.6,36.3l50.4,6c0,0,39.6-15.4,43.5-27.7c7.4-23.4,3.1-105.7,2.5-110.7
			c-36.9-6.8-89.3-30.7-114,2.9C880.2,489.3,877,526.2,874.7,546.6z"/>
		<path class="st21" d="M999,546.1c0,0,34.3-84.2,30.9-96.8s-17.5-16.7-17.5-16.7s-3.6-41.8-33.4-46.6
			c-29.9-4.8-103.7-8.6-101.9,17.2c1.8,25.8-6.8,42.2,8.3,50.5c3.9-7.3,55.6-24.7,102.4,1.6c10.9,20.8,11.4,47.6,11.4,47.6
			l10.7-13.3l-9.1,31.9L999,546.1z"/>
		<path class="st7" d="M995.5,524.4c0,0,17.2,0.1,21.1-3.6c6-5.6,13.5-26.4,7.4-32c-4.6-4.2-24.7,3.2-24.7,3.2L995.5,524.4z"/>
		
			<ellipse transform="matrix(0.1176 -0.9931 0.9931 0.1176 306.8537 1354.5485)" class="st21" cx="915.6" cy="504.6" rx="11.5" ry="5.4"/>
		
			<ellipse transform="matrix(0.1176 -0.9931 0.9931 0.1176 338.997 1400.6754)" class="st21" cx="957.7" cy="509.6" rx="11.5" ry="5.4"/>
		<path class="st21" d="M950.6,492.3c0,0,20.8-1.2,27.6,3.3c5.6,4.3,4.4,4.2,4.4,4.2l-7.9-15.5l-22.8-2.7L950.6,492.3z"/>
		<path class="st21" d="M929.6,477.6c0,0-20.9,0.1-27.4,4.9c-5.3,4.6-4.1,4.4-4.1,4.4l7-16l22.6-4.1L929.6,477.6z"/>
		<path class="st22" d="M920.5,550.8c0,0,43.7,1.5,50-11.1c-4.4,16.5-18.6,23.4-28.3,23.4S920.5,550.8,920.5,550.8z"/>
		<path class="st7" d="M1087.7,688.3c0,0,50.1,79.2,37,103.3c-17.1,31.5-139.6,32.8-139.6,32.8l-3.7-27.9l85.2-33.5l-20.9-46.6
			L1087.7,688.3z"/>
		<polygon class="st20" points="1055,607 1119.2,691.4 1045,731.1 1025.3,702.1 		"/>
		<path class="st22" d="M1011.4,730.7H759.2c-6.6,0-12,5.4-12,12v132.1c0,6.6,5.4,12,12,12h252.3c6.6,0,12-5.4,12-12V742.7
			C1023.4,736.1,1018,730.7,1011.4,730.7z"/>
		<path class="st23" d="M890,811.9c-4.1,0-7.5-3.4-7.5-7.5c0-1.4,0.4-2.6,1-3.7c-1.8-0.8-3.9-1.3-6-1.3c-8.3,0-15,6.7-15,15
			s6.7,15,15,15s15-6.7,15-15c0-1-0.1-1.9-0.3-2.9C891.5,811.7,890.7,811.9,890,811.9z"/>
		
			<ellipse transform="matrix(0.7071 -0.7071 0.7071 0.7071 -302.3571 856.2927)" class="st23" cx="882.5" cy="793.1" rx="6.3" ry="2.5"/>
	</g>
	<g>
		<path class="st17" d="M680.9,791.9h-27.6c-3.9,0-7.1,3.5-7.1,7.8V830c0,4.3,3.2,7.8,7.1,7.8h27.6c3.9,0,7.1-3.5,7.1-7.8v-30.4
			C688,795.4,684.8,791.9,680.9,791.9z M677.8,821.9c0,4.3-3.2,7.8-7.1,7.8h-3.1c-3.9,0-7.1-3.5-7.1-7.8v-14.2
			c0-4.3,3.2-7.8,7.1-7.8h3.1c3.9,0,7.1,3.5,7.1,7.8V821.9z"/>
		<path class="st17" d="M588,858.2h64.8c3.8,0,7-3.2,7-7v-72.9c0-3.8-3.2-7-7-7H588c-3.8,0-7,3.2-7,7v72.9
			C581,855,584.2,858.2,588,858.2z"/>
	</g>
	<g>
		<path class="st22" d="M1221.4,907h-64.1c-6.3,0-11.5-5.2-11.5-11.5l-7.7-80.3c0-6.3,5.2-11.5,11.5-11.5h79.4
			c6.3,0,11.5,5.2,11.5,11.5l-7.7,80.3C1232.9,901.8,1227.7,907,1221.4,907z"/>
		<path class="st21" d="M1229.6,818h-79.3c-2.4,0-4.4-2-4.4-4.4v-0.8c0-2.4,2-4.4,4.4-4.4h79.3c2.4,0,4.4,2,4.4,4.4v0.8
			C1234,816.1,1232,818,1229.6,818z"/>
		<g>
			<path class="st17" d="M1147.6,735.7l-0.2,0c-0.5,0.1-0.9-0.3-1-0.8l-1-7.8c-0.1-0.5,0.3-0.9,0.8-1l0.2,0c0.5-0.1,0.9,0.3,1,0.8
				l1,7.8C1148.4,735.2,1148.1,735.7,1147.6,735.7z"/>
			<path class="st17" d="M1147.1,730.3L1147.1,730.3c2.6-0.3,5.7,8.3,6,10.9l7.7,71.3c0.3,2.6-9.2,3.6-9.5,1l-7.7-71.3
				C1143.3,739.6,1144.5,730.6,1147.1,730.3z"/>
			<path class="st6" d="M1143.7,742.7c0,0,3.3,1.7,4.7-0.7c0.6-1,4.8-0.7,4.8-0.7s0-0.1,0-0.1c-0.3-2.6-3.4-11.2-6-10.9
				c-2.6,0.3-3.8,9.3-3.5,11.9L1143.7,742.7z"/>
		</g>
		<g>
			<path class="st18" d="M1155.3,735.7l-0.2,0c-0.5,0.1-0.9-0.3-1-0.8l-1-7.8c-0.1-0.5,0.3-0.9,0.8-1l0.2,0c0.5-0.1,0.9,0.3,1,0.8
				l1,7.8C1156.1,735.2,1155.8,735.7,1155.3,735.7z"/>
			<path class="st18" d="M1154.8,730.3L1154.8,730.3c2.6-0.3,5.7,8.3,6,10.9l7.7,71.3c0.3,2.6-9.2,3.6-9.5,1l-7.7-71.3
				C1151,739.6,1152.2,730.6,1154.8,730.3z"/>
			<path class="st6" d="M1151.3,742.7c0,0,3.3,1.7,4.7-0.7c0.6-1,4.8-0.7,4.8-0.7s0-0.1,0-0.1c-0.3-2.6-3.4-11.2-6-10.9
				c-2.6,0.3-3.8,9.3-3.5,11.9L1151.3,742.7z"/>
		</g>
		<g>
			<path class="st24" d="M1198.3,737.7l-0.2,0c-0.5,0.1-0.9-0.3-1-0.8l-1-7.8c-0.1-0.5,0.3-0.9,0.8-1l0.2,0c0.5-0.1,0.9,0.3,1,0.8
				l1,7.8C1199.1,737.2,1198.8,737.6,1198.3,737.7z"/>
			<path class="st24" d="M1197.8,732.2L1197.8,732.2c2.6-0.3,5.7,8.3,6,10.9l7.7,71.3c0.3,2.6-9.2,3.6-9.5,1l-7.7-71.3
				C1194,741.5,1195.2,732.5,1197.8,732.2z"/>
			<path class="st6" d="M1194.4,744.6c0,0,3.3,1.7,4.7-0.7c0.6-1,4.8-0.7,4.8-0.7s0-0.1,0-0.1c-0.3-2.6-3.4-11.2-6-10.9
				c-2.6,0.3-3.8,9.3-3.5,11.9L1194.4,744.6z"/>
		</g>
		<g>
			<path class="st23" d="M1235.6,735.7l-0.2,0c-0.5-0.1-0.8-0.5-0.8-1l0.9-7.8c0.1-0.5,0.5-0.8,1-0.8l0.2,0c0.5,0.1,0.8,0.5,0.8,1
				l-0.9,7.8C1236.5,735.4,1236.1,735.7,1235.6,735.7z"/>
			<path class="st23" d="M1236.5,730.3L1236.5,730.3c2.6,0.4,3.5,9.4,3.2,12l-9.8,71.1c-0.4,2.6-9.8,1.3-9.5-1.3l9.8-71.1
				C1230.5,738.4,1233.8,729.9,1236.5,730.3z"/>
			<path class="st6" d="M1230.1,741.5c0,0,2.8,2.4,4.7,0.5c0.8-0.9,4.8,0.5,4.8,0.5s0-0.1,0-0.1c0.4-2.6-0.6-11.7-3.2-12
				c-2.6-0.4-5.9,8.1-6.3,10.7L1230.1,741.5z"/>
		</g>
		<g>
			<path class="st21" d="M1225.1,737.6l-0.2,0c-0.5-0.1-0.8-0.5-0.8-1l0.9-7.8c0.1-0.5,0.5-0.8,1-0.8l0.2,0c0.5,0.1,0.8,0.5,0.8,1
				l-0.9,7.8C1226,737.3,1225.6,737.6,1225.1,737.6z"/>
			<path class="st21" d="M1225.9,732.2L1225.9,732.2c2.6,0.4,3.5,9.4,3.2,12l-9.8,71.1c-0.4,2.6-9.8,1.3-9.5-1.3l9.8-71.1
				C1220,740.3,1223.3,731.8,1225.9,732.2z"/>
			<path class="st6" d="M1219.6,743.4c0,0,2.8,2.4,4.7,0.5c0.8-0.9,4.8,0.5,4.8,0.5s0-0.1,0-0.1c0.4-2.6-0.6-11.7-3.2-12
				s-5.9,8.1-6.3,10.7L1219.6,743.4z"/>
		</g>
		<g>
			<path class="st25" d="M1212.7,737.6l-0.2,0c-0.5-0.1-0.8-0.5-0.8-1l0.9-7.8c0.1-0.5,0.5-0.8,1-0.8l0.2,0c0.5,0.1,0.8,0.5,0.8,1
				l-0.9,7.8C1213.6,737.3,1213.1,737.6,1212.7,737.6z"/>
			<path class="st25" d="M1213.5,732.2L1213.5,732.2c2.6,0.4,3.5,9.4,3.2,12l-9.8,71.1c-0.4,2.6-9.8,1.3-9.5-1.3l9.8-71.1
				C1207.6,740.3,1210.9,731.8,1213.5,732.2z"/>
			<path class="st6" d="M1207.1,743.4c0,0,2.8,2.4,4.7,0.5c0.8-0.9,4.8,0.5,4.8,0.5s0-0.1,0-0.1c0.4-2.6-0.6-11.7-3.2-12
				c-2.6-0.4-5.9,8.1-6.3,10.7L1207.1,743.4z"/>
		</g>
		<g>
			<path class="st4" d="M1188.5,736.2l-0.2,0c-0.5,0-0.9-0.4-0.9-0.9l-0.2-7.8c0-0.5,0.4-0.9,0.9-0.9l0.2,0c0.5,0,0.9,0.4,0.9,0.9
				l0.2,7.8C1189.4,735.8,1189,736.2,1188.5,736.2z"/>
			<path class="st4" d="M1188.6,730.7L1188.6,730.7c2.6,0,4.8,8.8,4.9,11.4l0.5,71.7c0,2.6-9.5,2.7-9.6,0.1l-0.5-71.7
				C1183.8,739.6,1185.9,730.7,1188.6,730.7z"/>
			<path class="st6" d="M1183.9,742.7c0,0,3.1,2,4.7-0.2c0.7-1,4.8-0.2,4.8-0.2s0-0.1,0-0.1c0-2.6-2.2-11.5-4.9-11.4
				s-4.7,8.9-4.7,11.5L1183.9,742.7z"/>
		</g>
		<g>
			<path class="st7" d="M1171.2,730.5l-0.2,0c-0.5,0-0.9-0.3-0.9-0.8l-0.6-7.8c0-0.5,0.3-0.9,0.8-0.9l0.2,0c0.5,0,0.9,0.3,0.9,0.8
				l0.6,7.8C1172,730.1,1171.7,730.5,1171.2,730.5z"/>
			<path class="st7" d="M1170.9,725.1L1170.9,725.1c2.6-0.2,5.3,8.5,5.5,11.1l4.6,71.6c0.2,2.6-9.4,3.2-9.5,0.6l-4.6-71.6
				C1166.7,734.2,1168.3,725.2,1170.9,725.1z"/>
			<path class="st6" d="M1166.9,737.3c0,0,3.2,1.8,4.7-0.5c0.7-1,4.8-0.5,4.8-0.5s0-0.1,0-0.1c-0.2-2.6-2.9-11.3-5.5-11.1
				c-2.6,0.2-4.2,9.1-4,11.8L1166.9,737.3z"/>
		</g>
	</g>
</g>
</svg>
