<?xml version="1.0" encoding="utf-8"?>
<!-- Generator: Adobe Illustrator 26.3.1, SVG Export Plug-In . SVG Version: 6.00 Build 0)  -->
<svg version="1.1" id="Camada_1" xmlns="http://www.w3.org/2000/svg" xmlns:xlink="http://www.w3.org/1999/xlink" x="0px" y="0px"
	 viewBox="0 0 181.28 40" style="enable-background:new 0 0 181.28 40;" xml:space="preserve">
<style type="text/css">
	.st0{clip-path:url(#SVGID_00000152241915178665714700000003860205698822734261_);}
	.st1{fill:#F39200;}
	.st2{clip-path:url(#SVGID_00000165954665831967429180000013390653021393827720_);}
	.st3{fill:#F9B233;}
</style>
<g>
	<path d="M63.23,28.4h-3.97c-0.39,0-0.58-0.18-0.58-0.54V9.24c0-0.35,0.19-0.54,0.58-0.54h13.29c0.39,0,0.58,0.18,0.58,0.54v3.53
		c0,0.34-0.19,0.51-0.58,0.51h-8.76v3.73h7.56c0.2,0,0.34,0.04,0.43,0.12c0.09,0.08,0.14,0.22,0.14,0.39v3.38
		c0,0.35-0.19,0.54-0.57,0.54h-7.56v6.45C63.79,28.21,63.61,28.4,63.23,28.4z"/>
	<path d="M75.72,14.33h3.88c0.38,0,0.57,0.18,0.57,0.54v1.53h0.05c0.31-0.61,0.8-1.16,1.49-1.62c0.69-0.47,1.43-0.72,2.26-0.72
		c1.04,0,1.84,0.15,2.41,0.47c0.15,0.08,0.23,0.19,0.26,0.32c0.01,0.14-0.01,0.3-0.07,0.46l-1.04,3.28
		c-0.09,0.18-0.24,0.27-0.43,0.27c-0.11,0-0.22-0.01-0.31-0.05c-0.46-0.15-0.92-0.23-1.35-0.23c-0.95,0-1.72,0.31-2.32,0.92
		c-0.61,0.61-0.92,1.46-0.92,2.54v5.83c0,0.35-0.19,0.54-0.57,0.54h-3.89c-0.39,0-0.58-0.18-0.58-0.54v-13
		C75.14,14.51,75.33,14.33,75.72,14.33z"/>
	<path d="M87.85,25.04c-0.7-1.12-1.05-2.34-1.05-3.68c0-1.32,0.35-2.55,1.05-3.68c0.7-1.12,1.66-2.01,2.88-2.66
		c1.22-0.65,2.55-0.97,4-0.97c1.45,0,2.8,0.32,4.01,0.97c1.22,0.65,2.2,1.54,2.91,2.66c0.72,1.12,1.05,2.35,1.05,3.68
		s-0.35,2.55-1.05,3.68c-0.7,1.12-1.68,2.01-2.91,2.66c-1.22,0.65-2.55,0.97-4,0.97c-1.45,0-2.78-0.32-4-0.97
		C89.52,27.02,88.55,26.16,87.85,25.04z M92.59,19.27c-0.57,0.55-0.85,1.24-0.85,2.09s0.3,1.54,0.85,2.09
		c0.57,0.55,1.28,0.82,2.15,0.82s1.59-0.28,2.18-0.84c0.58-0.55,0.88-1.26,0.88-2.08c0-0.82-0.3-1.53-0.88-2.08
		c-0.58-0.55-1.31-0.84-2.18-0.84S93.17,18.72,92.59,19.27z"/>
	<path d="M119.84,28.4h-3.91c-0.36,0-0.55-0.18-0.55-0.54v-6.61c0-0.84-0.22-1.51-0.66-2.04c-0.45-0.53-1.08-0.78-1.92-0.78
		c-0.73,0-1.37,0.26-1.91,0.76c-0.54,0.5-0.81,1.07-0.81,1.68v6.99c0,0.35-0.19,0.54-0.57,0.54h-3.88c-0.39,0-0.58-0.18-0.58-0.54
		V14.86c0-0.35,0.19-0.54,0.58-0.54h3.88c0.38,0,0.57,0.18,0.57,0.54v1.3c1.2-1.41,2.72-2.09,4.57-2.09c1.85,0,3.28,0.54,4.28,1.62
		s1.5,2.62,1.5,4.65v7.54C120.42,28.21,120.23,28.4,119.84,28.4z"/>
	<path d="M132.97,24.1l1.51,2.91c0.11,0.3,0.03,0.51-0.26,0.65c-1.32,0.69-2.73,1.03-4.23,1.03c-1.73,0-3.08-0.43-4.01-1.3
		c-0.93-0.86-1.41-2.08-1.41-3.68v-5.15h-1.3c-0.18,0-0.32-0.05-0.43-0.14c-0.11-0.09-0.15-0.23-0.15-0.39V14.9
		c0-0.35,0.19-0.54,0.58-0.54h1.3v-3.64c0-0.35,0.19-0.54,0.55-0.54h3.91c0.39,0,0.58,0.18,0.58,0.54v3.62h3.41
		c0.39,0,0.58,0.18,0.58,0.54v3.14c0,0.35-0.19,0.54-0.58,0.54h-3.41v4.53c0,0.8,0.43,1.2,1.3,1.2c0.42,0,0.92-0.12,1.47-0.36
		c0.07-0.01,0.14-0.03,0.23-0.03C132.76,23.9,132.87,23.96,132.97,24.1z"/>
	<path d="M137.46,14.33h3.88c0.38,0,0.57,0.18,0.57,0.54v1.19c1.2-1.32,2.69-2,4.46-2c1.87,0,3.34,0.73,4.41,2.16
		c1.8-1.43,3.7-2.16,5.7-2.16c1.76,0,3.12,0.54,4.12,1.62c1,1.08,1.49,2.64,1.49,4.64v7.54c0,0.35-0.19,0.54-0.55,0.54h-3.91
		c-0.39,0-0.58-0.18-0.58-0.54v-6.61c0-0.84-0.2-1.53-0.59-2.04c-0.39-0.53-1-0.77-1.81-0.77c-0.69,0-1.28,0.26-1.82,0.76
		c-0.54,0.5-0.8,1.07-0.8,1.69v6.99c0,0.35-0.19,0.54-0.58,0.54h-3.91c-0.36,0-0.55-0.18-0.55-0.54v-6.61c0-0.84-0.2-1.53-0.59-2.04
		c-0.41-0.53-1-0.77-1.82-0.77c-0.69,0-1.28,0.26-1.84,0.76c-0.54,0.51-0.8,1.07-0.8,1.68v6.99c0,0.35-0.19,0.54-0.57,0.54h-3.88
		c-0.39,0-0.58-0.18-0.58-0.54V14.89C136.88,14.51,137.07,14.33,137.46,14.33z"/>
	<path d="M165.8,14.33h3.88c0.38,0,0.57,0.18,0.57,0.54v1.14c0.64-0.61,1.28-1.08,1.97-1.42c0.69-0.34,1.49-0.51,2.41-0.51
		c1.3,0,2.47,0.32,3.49,0.99c1.01,0.66,1.81,1.55,2.35,2.66c0.54,1.11,0.81,2.32,0.81,3.65c0,1.32-0.27,2.54-0.81,3.65
		c-0.54,1.11-1.34,2-2.35,2.66c-1.01,0.66-2.19,0.99-3.49,0.99c-0.95,0-1.76-0.18-2.45-0.53c-0.69-0.34-1.34-0.81-1.93-1.41v8.16
		c0,0.35-0.19,0.54-0.57,0.54h-3.88c-0.39,0-0.58-0.18-0.58-0.54V14.86C165.21,14.51,165.41,14.33,165.8,14.33z M175.36,23.47
		c0.58-0.55,0.88-1.26,0.88-2.09c0-0.84-0.3-1.54-0.88-2.09s-1.31-0.82-2.18-0.82c-0.86,0-1.58,0.28-2.16,0.82
		c-0.57,0.55-0.86,1.24-0.86,2.09s0.3,1.54,0.86,2.09c0.57,0.55,1.3,0.82,2.16,0.82C174.06,24.29,174.78,24.01,175.36,23.47z"/>
</g>
<g>
	<g>
		<g>
			<defs>
				<rect id="SVGID_1_" width="40.14" height="40.14"/>
			</defs>
			<clipPath id="SVGID_00000110432012355119466070000005381643381759737497_">
				<use xlink:href="#SVGID_1_"  style="overflow:visible;"/>
			</clipPath>
			<g style="clip-path:url(#SVGID_00000110432012355119466070000005381643381759737497_);">
				<path class="st1" d="M-2.93,20.83l-4.62-4.4C-8,16-8,15.57-7.55,15.14l23.74-22.6c0.45-0.43,0.91-0.43,1.36,0L33.02,7.27
					c0.45,0.43,0.45,0.86,0,1.29l-4.49,4.26c-0.43,0.41-0.87,0.4-1.33-0.03L16.99,3.08l-4.75,4.51l8.79,8.36
					c0.24,0.23,0.35,0.43,0.35,0.64s-0.11,0.41-0.35,0.64l-4.3,4.1c-0.45,0.43-0.91,0.44-1.35,0.01l-8.79-8.36l-8.21,7.81
					C-2.06,21.23-2.5,21.24-2.93,20.83z"/>
			</g>
		</g>
	</g>
	<g>
		<g>
			<defs>
				<rect id="SVGID_00000054251342598436338200000010340521052169566638_" width="40.14" height="40.14"/>
			</defs>
			<clipPath id="SVGID_00000038404460508261725940000005147828680546375600_">
				<use xlink:href="#SVGID_00000054251342598436338200000010340521052169566638_"  style="overflow:visible;"/>
			</clipPath>
			<g style="clip-path:url(#SVGID_00000038404460508261725940000005147828680546375600_);">
				<path class="st3" d="M42.74,19.55l4.62,4.4c0.45,0.43,0.45,0.86,0,1.29L23.63,47.83c-0.45,0.43-0.91,0.43-1.36,0L6.78,33.1
					c-0.45-0.43-0.45-0.86,0-1.29l4.49-4.26c0.43-0.41,0.87-0.4,1.33,0.03l10.21,9.71l4.75-4.51l-8.79-8.36
					c-0.24-0.23-0.35-0.43-0.35-0.64s0.11-0.41,0.35-0.64l4.3-4.1c0.45-0.43,0.91-0.44,1.35-0.01l8.79,8.36l8.21-7.81
					C41.87,19.14,42.31,19.13,42.74,19.55z"/>
			</g>
		</g>
	</g>
</g>
</svg>
