<?xml version="1.0" encoding="utf-8"?>
<!-- Generator: Adobe Illustrator 21.0.0, SVG Export Plug-In . SVG Version: 6.00 Build 0)  -->
<svg version="1.1" id="Camada_1" xmlns="http://www.w3.org/2000/svg" xmlns:xlink="http://www.w3.org/1999/xlink" x="0px" y="0px"
	 viewBox="0 0 85 18" style="enable-background:new 0 0 85 18;" xml:space="preserve">
<style type="text/css">
	.st0{fill:#37393F;}
	.st1{fill:#931D26;}
</style>
<g>
	<path class="st0" d="M4.4,6.7v1.9h4.7v2.8H4.4v3.6H0.6V3.8h9.1v2.8L4.4,6.7L4.4,6.7z"/>
	<path class="st0" d="M17.1,6.2v3.2c-0.4-0.1-0.5-0.1-0.8-0.1c-1.1,0-1.8,0.5-1.8,1.9v3.9h-3.7V6.3h3.5v0.9
		C14.9,6.6,15.8,6.2,17.1,6.2z"/>
	<path class="st0" d="M17.5,10.7c0-2.7,2.1-4.6,5.1-4.6s5.1,1.9,5.1,4.6s-2.1,4.6-5.1,4.6S17.5,13.4,17.5,10.7z M24.1,10.7
		c0-1.1-0.6-1.7-1.5-1.7c-0.8,0-1.5,0.5-1.5,1.7c0,1.1,0.6,1.7,1.5,1.7C23.5,12.4,24.1,11.9,24.1,10.7z"/>
	<path class="st0" d="M38.6,10.1v5H35v-4.5c0-1.1-0.5-1.6-1.1-1.6c-0.7,0-1.4,0.5-1.4,1.7V15h-3.7V6.3h3.5v0.9c0.7-0.7,1.6-1,2.7-1
		C37.1,6.2,38.6,7.3,38.6,10.1z"/>
	<path class="st0" d="M46.7,14.8c-0.5,0.4-1.4,0.5-2.2,0.5c-2.5,0-3.8-1.1-3.8-3.6V9.5h-1.3V6.8h1.2V4.4h3.7v2.5h1.8v2.7h-1.8v2.2
		c0,0.5,0.4,0.8,0.7,0.8c0.3,0,0.5-0.1,0.8-0.3L46.7,14.8z"/>
	<path class="st1" d="M68.6,15.1V10l-2.5,4.1h-1.7l-2.4-4V15h-3.5V3.8h3.1l3.7,6l3.6-6h3.1V15L68.6,15.1L68.6,15.1z"/>
	<path class="st1" d="M84.4,8.1c0,2.7-2,4.2-5.1,4.2h-1.6V15h-3.8V3.8h5.4C82.4,3.8,84.4,5.4,84.4,8.1z M80.5,8.1
		c0-0.8-0.5-1.3-1.6-1.3h-1.4v2.7H79C80.1,9.4,80.5,8.9,80.5,8.1z"/>
	<g>
		<path class="st0" d="M47.9,12.4h4v2.7h-4V12.4z"/>
	</g>
	<g>
		<path class="st0" d="M52.9,12.4h4v2.7h-4V12.4z"/>
	</g>
</g>
</svg>
