<?xml version="1.0" encoding="utf-8"?>
<!-- Generator: Adobe Illustrator 21.0.0, SVG Export Plug-In . SVG Version: 6.00 Build 0)  -->
<svg version="1.1" id="Camada_1" xmlns="http://www.w3.org/2000/svg" xmlns:xlink="http://www.w3.org/1999/xlink" x="0px" y="0px"
	 viewBox="0 0 959.5 768" style="enable-background:new 0 0 959.5 768;" xml:space="preserve">
<style type="text/css">
	.st0{fill:#E2E8F7;}
	.st1{fill:#5596A0;}
	.st2{fill:#EEF2EC;}
	.st3{fill:#3A5866;}
	.st4{fill:#6CBFBF;}
	.st5{fill:#CCCCCC;}
	.st6{fill:#B3B3B3;}
	.st7{fill:#1A1A1A;}
	.st8{fill:#182B44;}
	.st9{fill:#F3D2B5;}
	.st10{fill:#93141D;}
	.st11{fill:#FFFFFF;}
	.st12{fill:#333333;}
	.st13{fill:#E9A292;}
	.st14{fill:#C3D2DE;}
	.st15{fill:#4D4D4D;}
	.st16{fill:#E6E6E6;}
	.st17{fill:#42210B;}
	.st18{fill:#F2F2F2;}
</style>
<path class="st0" d="M6.5,768h952V0h-699C525,265.5-69.4,580.6,6.5,768z"/>
<g>
	<g>
		<g>
			<path class="st1" d="M214.6,440.2c0,0-27.4-1.8-23-34.7s-20.8-43.9-26.7-54.8c-5.8-11-5.8-39.5,26.7-54.1
				c30.3-21.6,29.6-19.7,25.2-37.3c-4.4-17.5-2.2-97.3,47.9-73.9c24.1,21.6,5.8,49.4-3.3,61.4c-9.1,12.1,22.7,2.7,19.7,27.5
				s-52.3,53.3-47.5,71.9C266.2,367.4,283,383.1,214.6,440.2z"/>
			<path class="st2" d="M246.8,589.5h-68.7c-4.8,0-8.8-3.9-8.8-8.8l-14.6-137.5c0-4.8,3.9-8.8,8.8-8.8h98c4.8,0,8.8,3.9,8.8,8.8
				l-14.6,137.5C255.6,585.5,251.6,589.5,246.8,589.5z"/>
			<path class="st3" d="M219.1,305.8c0,0,35.1-88.5,87-49.7s-18.3,35-36.7,48.6s-24.7,24.9-7.5,39.5c17.2,14.6,2.6,36.2-19,44.2
				s-24.1,42-23.8,46.1c-18.3-39.9-74.6-96.7-17.2-115.8C218.7,309.8,219.1,305.8,219.1,305.8z"/>
			<path class="st4" d="M212.4,434.7c0,0-47.5-10.2-43.9-43.4c3.7-33.2,32.1-46.2,3.3-79.4s-1.8-103.5,9.9-70.6s9.1,41.7,24.5,51
				s46.2,58.7,25.3,86.8S212.4,434.7,212.4,434.7z"/>
		</g>
		<circle class="st3" cx="464.4" cy="620.7" r="9.3"/>
		<circle class="st3" cx="413.5" cy="620.7" r="9.3"/>
		<circle class="st3" cx="364.2" cy="620.7" r="9.3"/>
		<path class="st5" d="M415.2,610.3h-4.6c-4.7,0-8.5-3.8-8.5-8.5v-77.5c0-4.7,3.8-8.5,8.5-8.5h4.6c4.7,0,8.5,3.8,8.5,8.5v77.5
			C423.7,606.5,419.9,610.3,415.2,610.3z"/>
		<path class="st6" d="M475.9,604.2v0.8c0,3.7-3.1,6.8-6.8,6.8H357.9c-3.7,0-6.8-3.1-6.8-6.8v-0.8c0-3.7,3.1-6.8,6.8-6.8h111.3
			C472.9,597.4,475.9,600.4,475.9,604.2z"/>
		<path class="st3" d="M436.8,498.2c0,0,29.5,8.4,47.2,0s22.8-8.4,22.8,3.4c0,11.8,3.4,44.7-44.7,40.4c-48-4.2-99.8-3.4-99.8-3.4
			s-23.6-23.3,8.4-30.9C402.6,500.1,415.7,498.2,436.8,498.2z"/>
		<path class="st3" d="M474.4,475.3c0,0,45.9,8,46.4-35.4c0.4-43.5,35.2-86.6,22-89.9c-13.2-3.2-54.3,22.1-75.6,26.8
			c-21.2,4.7-86-20.2-84.7-5.1c1.3,15.1-3.2,104.3,36.8,104.6C459.3,476.6,474.4,475.3,474.4,475.3z"/>
		<path class="st1" d="M223.6,645.6h-0.8c-3.7,0-6.8-3.1-6.8-6.8V474.6c0-3.7,3.1-6.8,6.8-6.8h0.8c3.7,0,6.8,3.1,6.8,6.8v164.2
			C230.3,642.6,227.3,645.6,223.6,645.6z"/>
		<path class="st4" d="M555.5,645.6h-0.8c-3.7,0-6.8-3.1-6.8-6.8V474.6c0-3.7,3.1-6.8,6.8-6.8h0.8c3.7,0,6.8,3.1,6.8,6.8v164.2
			C562.3,642.6,559.3,645.6,555.5,645.6z"/>
		<path class="st7" d="M383.2,605c0,0,8.9,3.5,8.9,14.5c-0.8,12.6,0,22.8,0,22.8l-5.9-13.5l-6.7,15.2c0,0-20.2,7.6-47.2,2.5
			c10.1-2.5,27-9.7,29.9-20C371.5,615.9,375.2,604,383.2,605z"/>
		<path class="st8" d="M398.9,253c0,0,19.4-16.9,33.7-5.9s29.5,16.9,21.1,44.7c-8.4,27.8-20.2,48.9-7.6,56.5
			c-24.4,11.8-45.5,20.2-44.7-1.7C402.2,324.6,420.8,266.5,398.9,253z"/>
		<path class="st8" d="M411.1,249.3c0,0,13.5,2.8,10.4,16.6c-3.1,13.9,3.2,154.2-17.6,160.7c-19.8,5.5-46.8-0.1-48.9-46.3
			s17.7-60.7,25.3-80.9C385.5,285.4,377.8,232.6,411.1,249.3z"/>
		<path class="st9" d="M376.9,348.2c0,0-29.5-3.4,7.6,72.5c11.8,0,14.3,0,14.3,0l-6.7-56.5L376.9,348.2z"/>
		<path class="st9" d="M376.9,348.2c0,0,38.8,5.9,32-7.6c11.8-27.8,9.3-66.6,9.3-66.6s-0.8-22.8,14.3-5.9c5.9,7.6,6.7,9.3,6.7,9.3
			s3.4,5.1,10.1,2.5c-2.5,6.7-5.1,7.6-5.1,7.6l5.1,11c0,0,1.7,3.4-2.5,5.9s-17.7,12.6-19.4,15.2c3.4,11.8,3.4,23.6,11.8,21.1
			s37.9-16.9,39.6-3.4s1.7,13.5,1.7,13.5S463.6,366,431.6,366S388.7,361.7,376.9,348.2z"/>
		<path class="st10" d="M334,525.1h124.7c0,0,39.6-5.1,12.6-58.1c-8.4-18.5-27-85.1,12.6-105.3l-3.4-11c0,0-70.8,30.3-103.6-2.5
			c-2.5,5.1,12.6,29.5,12.6,29.5s-20.2,31.2,4.2,43.8c7.6,16.9,30.1,48.6-5.9,52.2C333.1,480.5,297.7,507.5,334,525.1z"/>
		<path class="st9" d="M482.3,362.5l18.5,64.9c0,0-3.4,11.8-21.9,12.6c-24.4-1.7-53.9-10.1-53.9-10.1v-11l52.2-0.8l-10.1-40.4
			C467.1,375.2,472.4,368.7,482.3,362.5z"/>
		<path class="st11" d="M452.6,449.3h-72.9c-2,0-3.6,1.6-3.6,3.6v0.4c0,2,1.6,3.6,3.6,3.6h72.9c2,0,3.6-1.6,3.6-3.6v-0.4
			C456.2,450.9,454.5,449.3,452.6,449.3z"/>
		<path class="st11" d="M413.8,394.5h-86.4c-6.6,0-12,5.4-12,12v38.4c0,6.6,5.4,12,12,12h86.4c6.6,0,12-5.4,12-12v-38.4
			C425.8,399.9,420.4,394.5,413.8,394.5z"/>
		<path class="st1" d="M593.4,474.8H190.3c-3,0-5.5-2.5-5.5-5.5v-6.9c0-3,2.5-5.5,5.5-5.5h403.1c3,0,5.5,2.5,5.5,5.5v6.9
			C598.9,472.3,596.4,474.8,593.4,474.8z"/>
		<path class="st9" d="M331.4,525.1h70.8c0,0,19.4-32-12.6-37.1s-53.9-4.2-65.7,10.1C309,516.3,331.4,525.1,331.4,525.1z"/>
		<ellipse class="st12" cx="431.3" cy="280" rx="1.3" ry="2.5"/>
		<path class="st11" d="M443,292.3l-13.1,3.3C429.9,295.5,438.5,303.5,443,292.3z"/>
		<path class="st12" d="M422.4,280c0,0,0.8-8.4,6.7-7.6C424.1,274.9,422.4,280,422.4,280z"/>
		<path class="st9" d="M328.9,494c0,0,35.4-9.3,42.1,64c5.9,28.6,15.2,48.9,15.2,48.9s-4.2,17.7-24.4,21.1c5.1-11,13.5-19.4,2.5-43
			C346.6,559.7,292.7,494,328.9,494z"/>
		<path class="st7" d="M313.9,618.9c0,0,5,8.2-1.6,16.9c-8.3,9.6-13.7,18.2-13.7,18.2l3.4-14.3l-14.5,8.1c0,0-20.7-6.1-39.2-26.4
			c9.6,4.1,27.3,8.5,35.9,2C298,620.5,308.1,613.2,313.9,618.9z"/>
		<path class="st9" d="M337.4,497.5c0,0,33.8,13.9-4.9,76.5c-12.5,26.4-17.3,48.2-17.3,48.2s-14,11.6-32.2,2.1
			c10.6-5.7,22.4-7.4,27.9-32.8C312,560.6,308.5,475.7,337.4,497.5z"/>
		<path class="st4" d="M593.4,474.8H448.2c-3,0-5.5-2.5-5.5-5.5v-6.9c0-3,2.5-5.5,5.5-5.5h145.2c3,0,5.5,2.5,5.5,5.5v6.9
			C598.9,472.3,596.4,474.8,593.4,474.8z"/>
		<path class="st5" d="M475.5,604.4v0.8c0,3.7-3.1,6.8-6.8,6.8h-60.6c-3.7,0-6.8-3.1-6.8-6.8v-0.8c0-3.7,3.1-6.8,6.8-6.8h60.6
			C472.5,597.6,475.5,600.7,475.5,604.4z"/>
		<g>
			<path class="st13" d="M301,432.6h-11.5c-1.6,0-2.9,1.3-2.9,2.9V447c0,1.6,1.3,2.9,2.9,2.9H301c1.6,0,2.9-1.3,2.9-2.9v-11.5
				C303.9,433.9,302.6,432.6,301,432.6z M299.7,444c0,1.6-1.3,2.9-2.9,2.9h-1.3c-1.6,0-2.9-1.3-2.9-2.9v-5.4c0-1.6,1.3-2.9,2.9-2.9
				h1.3c1.6,0,2.9,1.3,2.9,2.9V444z"/>
			<path class="st13" d="M266.2,457.7h18.9c3.8,0,7-3.1,7-7v-18.9c0-3.9-3.2-7-7-7h-18.9c-3.9,0-7,3.1-7,7v18.9
				C259.2,454.6,262.4,457.7,266.2,457.7z"/>
		</g>
		<path class="st14" d="M372.5,427c-1.7,0-3-1.3-3-3c0-0.5,0.2-1.1,0.4-1.5c-0.7-0.3-1.6-0.5-2.4-0.5c-3.3,0-6,2.7-6,6s2.7,6,6,6
			s6-2.7,6-6c0-0.4,0-0.8-0.1-1.1C373.1,426.9,372.8,427,372.5,427z"/>
		
			<ellipse transform="matrix(0.7071 -0.7071 0.7071 0.7071 -188.4113 384.1342)" class="st14" cx="369.5" cy="419.5" rx="2.5" ry="1"/>
	</g>
	<g>
		<path class="st1" d="M745.5,608.8l2.9,7.4l0.9,16.1l-13.8,5.1l-4.1-4l-7.7,4.8c0,0-17.8,3.7-26.8,3.3c1-2.2,2.1-7.3,2.1-7.3
			s13.6,0.2,20.3-10.8c2.7-4.4,5.6-10.9,5.6-10.9L745.5,608.8z"/>
		<path class="st1" d="M654.7,608.3l2,7.7l-1,16.1l-14.3,3.4l-3.6-4.4l-8.2,3.8c0,0-18.1,1.5-27,0c1.3-2.1,2.9-7,2.9-7
			s13.5,1.9,21.5-8.2c3.2-4,6.9-10.1,6.9-10.1L654.7,608.3z"/>
		<path class="st9" d="M759.3,351.5c0,0,0.5,12.1-9.2,15.6c-1.9,2.6-1.9,5-2.1,9.2c-0.2,4.3,0.2,9-1.7,10.4c3.3,1.4,7.1-0.7,8.3-5.4
			c-0.2,14.5-1.8,19.9-1.8,19.9s5.8,1.7,9.1-2.4c5-4,9.2-2.8,11.6-7.6c2.4-4.7-0.7-18.7,0-24.2c0.7-5.4,3.3-14.2,3.3-14.2
			L759.3,351.5z"/>
		<polygon class="st11" points="757.9,349.9 756.9,358.4 776.4,359.6 778.9,352.6 		"/>
		<polygon class="st12" points="728,361.5 727.2,399.2 734.5,501.3 747.1,614.3 724.3,614.3 691,506.7 680.6,430 662.8,499.9 
			654.4,611.7 633.6,612.1 626.4,492.9 640.5,362 671.3,352.2 		"/>
		<path class="st15" d="M631.5,285l8.2-80.6l20.1,76.8L646.5,326c0,0-4.3,3.3-12.7,1.6c-2.1-0.4-31.6-21.8-31.6-21.8
			s-15.7-10.8-4.7-26.8c9.6-14,20-3,20-3L631.5,285z"/>
		
			<ellipse transform="matrix(0.9865 -0.1635 0.1635 0.9865 -38.3294 103.0555)" class="st8" cx="606.9" cy="284.4" rx="9.9" ry="15.4"/>
		<path class="st15" d="M639.7,204.4l62.6-7.9l51.7,4.3c0,0,30.8,63.2,33.8,86.1c2.2,16.9-7.7,67.6-7.7,67.6l-24.1-2.8l3.2-62.7
			l-19.4-35.4c0,0-18.3,97.6-5.5,138.4c-23.8,7.7-63,0-63,0l-3.9-22l-9.4,22l-26.6-11.6c0,0,18.7-77.3,17.9-97.6
			S639.7,204.4,639.7,204.4z"/>
		<polygon class="st16" points="713.9,204.7 681.3,267 671.3,206.8 		"/>
		<path class="st9" d="M673.4,198.5c0,0,1.6-12.4-1.6-12.9c-3.3-0.5-14.1-5.4-19.7-7.2c1.4-12.6,2.3-18.5,2.3-18.5s-8-4.2-8.5-8.4
			c2.8-1.4,12.4-6.5,11.6-8.8c0.6-4.7,9.1-21.6,9.1-21.6s42.1-8.4,53.3,8.9c0.5,22.9-17.3,45.5-9.9,69.1
			c-13.6,6.6-24.9,8.3-24.9,8.3L673.4,198.5z"/>
		<path class="st13" d="M708.9,178.4c-0.5,2.1-10.1-19.4-10.1-19.4s11.2-10.3,0-13.1s-10.3,10.3-10.3,10.3s-9.9-10.3,0-27.1
			c-1.4-6.1-5.1-7-22-8c-7.5-3.7-3.3-13.6,3.7-10.3c8-2.3,12.2-6.9,21.1-0.7c8,0.7,38.9,4.2,35.6,21.1S710.2,173.4,708.9,178.4z"/>
		<ellipse class="st3" cx="667.4" cy="142.6" rx="1.7" ry="3.5"/>
		<ellipse class="st1" cx="674.4" cy="299.6" rx="1.7" ry="3.5"/>
		<ellipse class="st1" cx="671.4" cy="330.6" rx="1.7" ry="3.5"/>
		<path class="st11" d="M660.8,163.2c0,0,14-3.6,15.3,0c0.8,2.1-7,5.7-7,5.7S656.2,169.1,660.8,163.2z"/>
		<path class="st13" d="M669.1,133.1c0,0,9.3-0.5,11.6,0.9C676.1,130.3,670.3,127.6,669.1,133.1z"/>
		<polygon class="st11" points="671.7,196.6 685.7,206.8 709.6,196.6 713.9,204.7 699.5,224.6 685.8,209.7 669.7,224.6 668,200.9 		
			"/>
		<polygon class="st10" points="685.8,209.7 693.5,218.1 688.5,223.3 687.8,254.6 681.3,267 678.1,247.6 683.5,222.5 678.1,216.8 		
			"/>
		<polygon class="st17" points="553.8,271.9 526,234.1 616.1,263.5 610,285.2 		"/>
		<polygon class="st11" points="561,268.7 533.2,230.8 623.3,260.2 617.2,282 		"/>
		<polygon class="st18" points="561,268.7 542.7,225.6 630.4,259.6 624.4,281.4 		"/>
		<polygon class="st11" points="563.3,267.8 553.1,219.9 639.2,259.4 630.7,280.3 		"/>
		<polygon class="st10" points="553.8,271.9 625.9,288.9 670.1,267.1 603,238.1 		"/>
		<path class="st9" d="M583.6,277.7l6,1.4c0,0,13.9-11.2,22.9-11.6s-0.8,5.8-0.8,5.8s6.3-2.1,7.4,1.4c1.2,3.5,6.3,7.2,5.1,9
			s-1.2,6.4-4.3,6.8c-10,0.4-25.2-1-25.2-1s-5.3-1.1-6.8-4S579.3,280.5,583.6,277.7z"/>
	</g>
</g>
</svg>
