<?xml version="1.0" encoding="utf-8"?>
<!-- Generator: Adobe Illustrator 21.0.0, SVG Export Plug-In . SVG Version: 6.00 Build 0)  -->
<svg version="1.1" id="Camada_1" xmlns="http://www.w3.org/2000/svg" xmlns:xlink="http://www.w3.org/1999/xlink" x="0px" y="0px"
	 viewBox="0 0 45 18" style="enable-background:new 0 0 45 18;" xml:space="preserve">
<style type="text/css">
	.st0{fill:#37393F;}
	.st1{fill:#931D26;}
</style>
<g>
	<path class="st0" d="M4.1,6.8v1.8h4.4v2.7H4.1v3.4H0.4V4h8.6v2.7L4.1,6.8L4.1,6.8z"/>
	<path class="st1" d="M29.6,14.7V9.8l-2.3,3.9h-1.6l-2.2-3.8v4.7h-3.3V4h2.9l3.5,5.7L29.9,4h2.9v10.6L29.6,14.7L29.6,14.7z"/>
	<path class="st1" d="M44.6,8c0,2.5-1.9,4-4.8,4h-1.6v2.6h-3.6V4h5.1C42.7,4,44.6,5.5,44.6,8z M41,8c0-0.8-0.4-1.2-1.5-1.2h-1.3v2.5
		h1.3C40.5,9.2,41,8.8,41,8z"/>
	<g>
		<path class="st0" d="M10.1,12.1h3.8v2.5h-3.8V12.1z"/>
	</g>
	<g>
		<path class="st0" d="M14.9,12.1h3.8v2.5h-3.8V12.1z"/>
	</g>
</g>
</svg>
