<?xml version="1.0" encoding="utf-8"?>
<!-- Generator: Adobe Illustrator 21.0.0, SVG Export Plug-In . SVG Version: 6.00 Build 0)  -->
<svg version="1.1" id="Camada_1" xmlns="http://www.w3.org/2000/svg" xmlns:xlink="http://www.w3.org/1999/xlink" x="0px" y="0px"
	 viewBox="0 0 32 32" style="enable-background:new 0 0 32 32;" xml:space="preserve">
<style type="text/css">
	.st0{fill:#F2F2F2;}
	.st1{fill:#BDCCD4;}
</style>
<rect class="st0" width="32" height="32"/>
<g>
	<path class="st1" d="M25.4,20.4c1.1,1.1,1.6,2.4,1.6,3.9v1.4h-0.2H5.2H5v-1.4c0-1.5,0.5-2.8,1.6-3.9c1.1-1.1,2.4-1.6,3.9-1.6h11
		C23,18.8,24.3,19.3,25.4,20.4z M16,6.4c1.5,0,2.8,0.5,3.9,1.6c1.1,1.1,1.6,2.4,1.6,3.9s-0.5,2.8-1.6,3.9c-1.1,1.1-2.4,1.6-3.9,1.6
		s-2.8-0.5-3.9-1.6c-1.1-1.1-1.6-2.4-1.6-3.9S11,9.1,12.1,8C13.2,6.9,14.5,6.4,16,6.4z"/>
</g>
</svg>
