<?xml version="1.0" encoding="utf-8"?>
<!-- Generator: Adobe Illustrator 21.0.0, SVG Export Plug-In . SVG Version: 6.00 Build 0)  -->
<svg version="1.1" id="Camada_1" xmlns="http://www.w3.org/2000/svg" xmlns:xlink="http://www.w3.org/1999/xlink" x="0px" y="0px"
	 viewBox="0 0 32 32" style="enable-background:new 0 0 32 32;" xml:space="preserve">
<g>
	<rect x="20.5" y="6.6" width="3.6" height="16"/>
	<path d="M6.7,7.1v1.5c0,0.8-0.1,1.5-0.1,2.3c0,0.1-0.1,0.2-0.2,0.3c-1.7,1.2-2.7,2.8-2.9,4.9c0,0.1,0,0.2,0,0.3c0,0,0,0.1,0,0.1H0
		c0-1.8,0.5-3.3,1.3-4.8C2.5,9.6,4,8.1,6.7,7.2"/>
	<path d="M19.2,7.1v0.7c0,1-0.1,2-0.1,3.1c0,0.1-0.1,0.2-0.1,0.2c-1.8,1.2-2.8,2.9-2.9,5.1c0,0.1,0,0.2,0,0.2h-3.4
		c0-1.8,0.4-3.2,1.2-4.6c1.1-2.2,3.1-3.8,5.4-4.6"/>
	<path d="M9.8,16.4H6.5c0-1.8,0.5-3.5,1.4-5C9,9.4,11,8,12.9,7.2c0,0,0,0.1,0,0.1c0,1.2,0,2.3,0,3.5c0,0.1,0,0.2-0.2,0.3
		c-1.7,1.1-2.6,2.7-2.8,4.7c0,0.1,0,0.2,0,0.3c0,0.1,0,0.3,0,0.3"/>
	<path d="M28.6,16.3c0-0.3-0.1-0.6-0.1-0.9c-0.3-1.8-1.3-3.2-2.8-4.2c-0.1-0.1-0.3-0.2-0.3-0.3c0-0.9-0.1-1.8-0.1-2.7V7.2
		c0.4,0.1,0.7,0.2,0.9,0.4c2.9,1.4,4.8,3.7,5.5,7c0.1,0.5,0.1,1.1,0.2,1.6c0,0.1,0,0.2-0.1,0.2C30.8,16.3,29.7,16.3,28.6,16.3
		C28.7,16.3,28.6,16.3,28.6,16.3"/>
	<path d="M3,18.1c-0.3,1.2-0.6,2.4-0.8,3.7H1.7c-0.3-1.3-0.5-2.4-0.8-3.7c0,0,0,0,0,0v3.6H0v-4.5h1.3c0.2,0.9,0.4,1.9,0.6,2.8
		c0,0,0,0,0,0c0.1-0.5,0.2-0.9,0.3-1.4c0.1-0.4,0.2-0.8,0.3-1.2c0-0.1,0-0.1,0-0.1c0.4,0,1.1,0,1.1,0v4.4H3.1v-3.7
		C3.1,18.1,3,18.1,3,18.1"/>
	<path d="M15.6,19.6v2.2h-0.7c0,0,0-0.2-0.1-0.4c-0.2,0.4-0.5,0.6-0.8,0.6c-0.7,0-1.1-0.3-1.3-1c-0.2-0.9-0.2-1.7,0-2.6
		c0.1-0.7,0.5-1,1.2-1.1c0.2,0,0.5,0,0.7,0c0.5,0.1,0.8,0.4,0.9,1c0,0.1,0,0.3,0,0.3h-0.8c0,0,0-0.2-0.1-0.4
		c-0.1-0.3-0.3-0.4-0.6-0.4c-0.3,0-0.5,0.2-0.5,0.5c0,0.5-0.1,1.1-0.1,1.6c0,0.3,0,0.6,0.1,0.8c0.1,0.3,0.2,0.5,0.5,0.5
		c0.3,0,0.5-0.2,0.5-0.5c0-0.2,0-0.3,0.1-0.7h-0.4v-0.4h0.5H15.6z"/>
	<path d="M19,19.6c0,0.3,0,0.7-0.1,1.1c-0.1,0.9-0.7,1.2-1.6,1.2c-0.7-0.1-1.1-0.4-1.2-1.1c-0.1-0.8-0.1-1.6,0-2.4
		c0.1-0.8,0.7-1.2,1.5-1.2c0.8,0.1,1.2,0.5,1.3,1.3C19,18.9,19,19.2,19,19.6 M18.2,19.5c0-0.4-0.1-0.8-0.1-1.2
		c0-0.2-0.2-0.3-0.4-0.4c-0.3-0.1-0.6,0.1-0.6,0.5c0,0.5-0.1,1-0.1,1.5c0,0.3,0,0.6,0.1,0.9c0,0.3,0.2,0.4,0.5,0.4
		c0.3,0,0.5-0.1,0.5-0.5C18.1,20.3,18.1,20,18.2,19.5"/>
	<path d="M5.3,20v1.8H4.5v-4.4c0,0,0.1,0,0.1,0c0.5,0,1.1,0,1.6,0c0.7,0,1,0.3,1,1c0,0.2,0,0.5,0,0.8c-0.1,0.5-0.5,0.8-1,0.8
		C5.9,20,5.8,19.9,5.3,20 M5.3,19.3c0.4,0,0.5,0,0.7-0.1c0.2,0,0.3-0.2,0.4-0.5c0-0.3,0-0.5-0.2-0.7c0,0-0.1,0-0.1,0
		c-0.2,0-0.3,0-0.7-0.1V19.3z"/>
	<rect x="9.4" y="20" width="1.3" height="0.4"/>
</g>
</svg>
