<svg xmlns="http://www.w3.org/2000/svg" xmlns:xlink="http://www.w3.org/1999/xlink">
  <symbol id="logo" viewBox="0 0 34 32">
    <rect x="20.5" y="6.6" width="3.6" height="16"/>
    <path d="M6.7 7.1v1.5c0 0.8-0.1 1.5-0.1 2.3 0 0.1-0.1 0.2-0.2 0.3 -1.7 1.2-2.7 2.8-2.9 4.9 0 0.1 0 0.2 0 0.3 0 0 0 0.1 0 0.1H0c0-1.8 0.5-3.3 1.3-4.8C2.5 9.6 4 8.1 6.7 7.2"/>
    <path d="M19.2 7.1v0.7c0 1-0.1 2-0.1 3.1 0 0.1-0.1 0.2-0.1 0.2 -1.8 1.2-2.8 2.9-2.9 5.1 0 0.1 0 0.2 0 0.2h-3.4c0-1.8 0.4-3.2 1.2-4.6 1.1-2.2 3.1-3.8 5.4-4.6"/>
    <path d="M9.8 16.4H6.5c0-1.8 0.5-3.5 1.4-5C9 9.4 11 8 12.9 7.2c0 0 0 0.1 0 0.1 0 1.2 0 2.3 0 3.5 0 0.1 0 0.2-0.2 0.3 -1.7 1.1-2.6 2.7-2.8 4.7 0 0.1 0 0.2 0 0.3 0 0.1 0 0.3 0 0.3"/>
    <path d="M28.6 16.3c0-0.3-0.1-0.6-0.1-0.9 -0.3-1.8-1.3-3.2-2.8-4.2 -0.1-0.1-0.3-0.2-0.3-0.3 0-0.9-0.1-1.8-0.1-2.7V7.2c0.4 0.1 0.7 0.2 0.9 0.4 2.9 1.4 4.8 3.7 5.5 7 0.1 0.5 0.1 1.1 0.2 1.6 0 0.1 0 0.2-0.1 0.2C30.8 16.3 29.7 16.3 28.6 16.3 28.7 16.3 28.6 16.3 28.6 16.3"/>
    <path d="M3 18.1c-0.3 1.2-0.6 2.4-0.8 3.7H1.7c-0.3-1.3-0.5-2.4-0.8-3.7 0 0 0 0 0 0v3.6H0v-4.5h1.3c0.2 0.9 0.4 1.9 0.6 2.8 0 0 0 0 0 0 0.1-0.5 0.2-0.9 0.3-1.4 0.1-0.4 0.2-0.8 0.3-1.2 0-0.1 0-0.1 0-0.1 0.4 0 1.1 0 1.1 0v4.4H3.1v-3.7C3.1 18.1 3 18.1 3 18.1"/>
    <path d="M15.6 19.6v2.2h-0.7c0 0 0-0.2-0.1-0.4 -0.2 0.4-0.5 0.6-0.8 0.6 -0.7 0-1.1-0.3-1.3-1 -0.2-0.9-0.2-1.7 0-2.6 0.1-0.7 0.5-1 1.2-1.1 0.2 0 0.5 0 0.7 0 0.5 0.1 0.8 0.4 0.9 1 0 0.1 0 0.3 0 0.3h-0.8c0 0 0-0.2-0.1-0.4 -0.1-0.3-0.3-0.4-0.6-0.4 -0.3 0-0.5 0.2-0.5 0.5 0 0.5-0.1 1.1-0.1 1.6 0 0.3 0 0.6 0.1 0.8 0.1 0.3 0.2 0.5 0.5 0.5 0.3 0 0.5-0.2 0.5-0.5 0-0.2 0-0.3 0.1-0.7h-0.4v-0.4h0.5H15.6z"/>
    <path d="M19 19.6c0 0.3 0 0.7-0.1 1.1 -0.1 0.9-0.7 1.2-1.6 1.2 -0.7-0.1-1.1-0.4-1.2-1.1 -0.1-0.8-0.1-1.6 0-2.4 0.1-0.8 0.7-1.2 1.5-1.2 0.8 0.1 1.2 0.5 1.3 1.3C19 18.9 19 19.2 19 19.6M18.2 19.5c0-0.4-0.1-0.8-0.1-1.2 0-0.2-0.2-0.3-0.4-0.4 -0.3-0.1-0.6 0.1-0.6 0.5 0 0.5-0.1 1-0.1 1.5 0 0.3 0 0.6 0.1 0.9 0 0.3 0.2 0.4 0.5 0.4 0.3 0 0.5-0.1 0.5-0.5C18.1 20.3 18.1 20 18.2 19.5"/>
    <path d="M5.3 20v1.8H4.5v-4.4c0 0 0.1 0 0.1 0 0.5 0 1.1 0 1.6 0 0.7 0 1 0.3 1 1 0 0.2 0 0.5 0 0.8 -0.1 0.5-0.5 0.8-1 0.8C5.9 20 5.8 19.9 5.3 20M5.3 19.3c0.4 0 0.5 0 0.7-0.1 0.2 0 0.3-0.2 0.4-0.5 0-0.3 0-0.5-0.2-0.7 0 0-0.1 0-0.1 0 -0.2 0-0.3 0-0.7-0.1V19.3z"/>
    <rect x="9.4" y="20" width="1.3" height="0.4"/>
  </symbol>

  <symbol id="adobe" viewBox="0 0 512 512">
    <polygon points="0 32 0 480 2.8 480 184.1 32 "/>
    <polygon points="325.1 32 512 480 512 32 "/>
    <polygon points="255.7 190.8 173.4 392.7 265.4 392.7 303 480 380.4 480 "/>
  </symbol>

  <symbol id="android" viewBox="0 0 299.7 299.7">
    <path d="M181.1 299.7c10 0 18.8-8.7 18.8-18.8v-43.8h12.5c7.5 0 12.5-5 12.5-12.5V99.5H74.7v125.1c0 7.5 5 12.5 12.5 12.5H99.8v43.8c0 10 8.7 18.8 18.8 18.8 10 0 18.8-8.7 18.8-18.8v-43.8h25.1v43.8C162.4 290.9 171.1 299.7 181.1 299.7z"/>
    <path d="M256.2 224.6c10 0 18.8-8.7 18.8-18.8v-87.6c0-10-8.7-18.7-18.8-18.7 -10 0-18.8 8.8-18.8 18.8v87.6C237.5 215.9 246.2 224.6 256.2 224.6z"/>
    <path d="M43.5 224.6c10 0 18.8-8.7 18.8-18.8v-87.6c0-10-8.7-18.7-18.8-18.7 -10 0-18.8 8.8-18.8 18.8v87.6C24.7 215.9 33.4 224.6 43.5 224.6z"/>
    <path d="M209.9 1.9c-2.5-2.5-6.2-2.5-8.7 0l-16.8 16.7 -0.8 0.8c-10-5-21.1-7.5-33.6-7.5 -0.1 0-0.1 0-0.2 0h0c-0.1 0-0.1 0-0.2 0 -12.4 0-23.6 2.5-33.6 7.5l-0.8-0.8L98.5 1.9c-2.5-2.5-6.2-2.5-8.7 0 -2.5 2.5-2.5 6.2 0 8.7l16.3 16.3c-5.2 3.5-10 7.8-14.1 12.7C82 51.3 75.7 66.5 74.9 83c0 0.2 0 0.3 0 0.5 -0.1 1.1-0.1 2.3-0.1 3.4H224.9c0-1.1 0-2.3-0.1-3.4 0-0.2 0-0.3 0-0.5 -0.9-16.5-7.2-31.8-17.1-43.5 -4.1-4.9-8.9-9.2-14.1-12.7l16.3-16.3C212.4 8.1 212.4 4.4 209.9 1.9zM118.5 65.1c-5.2 0-9.4-4.2-9.4-9.4 0-5.2 4.2-9.4 9.4-9.4 5.2 0 9.4 4.2 9.4 9.4C127.9 60.9 123.7 65.1 118.5 65.1zM181.1 65.1c-5.2 0-9.4-4.2-9.4-9.4 0-5.2 4.2-9.4 9.4-9.4 5.2 0 9.4 4.2 9.4 9.4C190.5 60.9 186.3 65.1 181.1 65.1z"/>
  </symbol>

  <symbol id="apple" viewBox="0 0 305 305">
    <path d="M40.7 112.1c-25.8 44.7-9.4 112.6 19.1 153.8C74.1 286.5 88.5 305 108.2 305c0.4 0 0.7 0 1.1 0 9.3-0.4 16-3.2 22.5-6 7.3-3.1 14.8-6.3 26.6-6.3 11.2 0 18.4 3.1 25.3 6.1 6.8 3 13.9 6 24.3 5.8 22.2-0.4 35.9-20.4 47.9-37.9 12.6-18.4 18.9-36.2 21-43l0.1-0.3c0.4-1.2-0.2-2.5-1.3-3.1 0 0-0.1-0.1-0.2-0.1 -3.9-1.6-38.3-16.8-38.6-58.4 -0.3-33.7 25.8-51.6 31-54.8l0.2-0.2c0.6-0.4 1-0.9 1.1-1.6 0.1-0.7 0-1.3-0.4-1.9 -18-26.4-45.6-30.3-56.7-30.8 -1.6-0.2-3.3-0.2-4.9-0.2 -13.1 0-25.6 4.9-35.6 8.9 -6.9 2.7-12.9 5.1-17.1 5.1 -4.6 0-10.7-2.4-17.6-5.2 -9.3-3.7-19.9-7.9-31.1-7.9 -0.3 0-0.5 0-0.8 0C78.9 73.6 54.3 88.5 40.7 112.1z"/>
    <path d="M212.1 0c-15.8 0.6-34.7 10.3-46 23.6 -9.6 11.1-19 29.7-16.5 48.4 0.2 1.2 1.1 2.1 2.3 2.2 1.1 0.1 2.2 0.1 3.2 0.1 15.4 0 32-8.5 43.4-22.3 12-14.5 18-33.1 16.2-49.8C214.5 0.9 213.4 0 212.1 0z"/>
  </symbol>

  <symbol id="facebook" viewBox="0 0 512 512">
      <path d="M288 176v-64c0-17.7 14.3-32 32-32h32V0h-64c-53 0-96 43-96 96v80h-64v80h64v256h96V256h64l32-80H288z"/>
  </symbol>

  <symbol id="linkedin" viewBox="0 0 512 512">
    <path d="m160 423h-70v-226h70zm7-298c0-22.6-18.4-41-41-41-22.7 0-41 18.4-41 41 0 22.6 18.3 41 41 41 22.6 0 41-18.4 41-41zm255 173.7c0-60.7-12.8-105.7-83.7-105.7-34.1 0-56.9 17-66.2 34.7h-0.1v-30.7h-68v226h68v-112.2c0-29.4 7.5-57.9 43.9-57.9 35.9 0 37.1 33.6 37.1 59.7v110.3h69zm90 153.3v-392c0-33.1-26.9-60-60-60h-392c-33.1 0-60 26.9-60 60v392c0 33.1 26.9 60 60 60h392c33.1 0 60-26.9 60-60zm-60-412c11 0 20 9 20 20v392c0 11-9 20-20 20h-392c-11 0-20-9-20-20v-392c0-11 9-20 20-20zm0 0"/>
  </symbol>

  <symbol id="twitter" viewBox="0 0 450 450">
    <path d="M450 85.7c-17.7 7.6-35.4 12.4-53.1 14.3 20-12 33.5-28.9 40.5-50.8 -18.3 10.8-37.8 18.3-58.5 22.3 -18.3-19.4-40.7-29.1-67.4-29.1 -25.5 0-47.2 9-65.2 27 -18 18-27 39.7-27 65.2 0 6.9 0.8 13.9 2.3 21.1 -37.7-1.9-73-11.4-106.1-28.4C82.5 110.2 54.4 87.5 31.4 59.1c-8.4 14.3-12.6 29.8-12.6 46.5 0 15.8 3.7 30.5 11.1 44 7.4 13.5 17.4 24.5 30 32.8 -14.8-0.6-28.7-4.5-41.7-11.7v1.1c0 22.3 7 41.8 21 58.7 14 16.8 31.6 27.5 53 31.8 -8 2.1-16.1 3.1-24.3 3.1 -5.3 0-11.1-0.5-17.4-1.4 5.9 18.5 16.8 33.6 32.5 45.5 15.8 11.9 33.7 18 53.7 18.4 -33.5 26.3-71.7 39.4-114.5 39.4 -8.2 0-15.6-0.4-22.3-1.1 42.8 27.6 90 41.4 141.6 41.4 32.7 0 63.5-5.2 92.2-15.6 28.7-10.4 53.3-24.3 73.7-41.7 20.4-17.4 37.9-37.4 52.7-60.1 14.8-22.7 25.7-46.3 33-70.9 7.2-24.7 10.8-49.3 10.8-74.1 0-5.3-0.1-9.3-0.3-12C421.8 120.2 437.2 104.3 450 85.7z"/>
  </symbol>

  <symbol id="whatsapp" viewBox="0 0 308 308">
    <path d="M227.9 177c-0.6-0.3-23.1-11.3-27-12.8 -1.6-0.6-3.4-1.2-5.2-1.2 -3 0-5.6 1.5-7.6 4.5 -2.2 3.3-9 11.3-11.1 13.6 -0.3 0.3-0.6 0.7-0.9 0.7 -0.2 0-3.7-1.4-4.7-1.9 -24.1-10.5-42.4-35.6-44.9-39.9 -0.4-0.6-0.4-0.9-0.4-0.9 0.1-0.3 0.9-1.1 1.3-1.6 1.2-1.2 2.5-2.8 3.8-4.3 0.6-0.7 1.2-1.5 1.8-2.2 1.9-2.2 2.7-3.8 3.6-5.8l0.5-1c2.3-4.7 0.3-8.6-0.3-9.9 -0.5-1.1-10-23.9-11-26.3 -2.4-5.8-5.6-8.5-10.1-8.5 -0.4 0 0 0-1.7 0.1 -2.1 0.1-13.6 1.6-18.7 4.8 -5.4 3.4-14.5 14.2-14.5 33.2 0 17.1 10.9 33.3 15.5 39.5 0.1 0.2 0.3 0.5 0.6 0.9 17.9 26.1 40.2 45.4 62.7 54.5 21.7 8.7 32 9.7 37.9 9.7 0 0 0 0 0 0 2.5 0 4.4-0.2 6.2-0.4l1.1-0.1c7.5-0.7 24-9.2 27.8-19.7 3-8.2 3.7-17.2 1.8-20.5C233.2 179.5 230.8 178.4 227.9 177z"/>
    <path d="M156.7 0C73.3 0 5.5 67.4 5.5 150.1c0 26.8 7.2 53 20.7 75.9L0.2 302.7c-0.5 1.4-0.1 3 0.9 4.1C1.9 307.6 2.9 308 4 308c0.4 0 0.8-0.1 1.2-0.2l79.9-25.4c21.9 11.7 46.6 17.9 71.6 17.9C240.1 300.3 308 232.9 308 150.1 308 67.4 240.1 0 156.7 0zM156.7 269c-23.5 0-46.3-6.8-65.9-19.7 -0.7-0.4-1.4-0.7-2.2-0.7 -0.4 0-0.8 0.1-1.2 0.2l-40 12.7 12.9-38.1c0.4-1.2 0.2-2.6-0.6-3.6 -14.9-20.4-22.8-44.5-22.8-69.7 0-65.5 53.8-118.9 119.8-118.9 66.1 0 119.8 53.3 119.8 118.9C276.5 215.7 222.8 269 156.7 269z"/>
  </symbol>

  <symbol id="youtube" viewBox="0 0 512 512">
      <path d="M490.2 113.9c-13.9-24.7-29-29.2-59.6-31C399.9 80.9 322.8 80 256.1 80c-66.9 0-144 0.9-174.7 2.9 -30.6 1.8-45.7 6.3-59.7 31C7.4 138.6 0 181.1 0 255.9 0 256 0 256 0 256c0 0.1 0 0.1 0 0.1v0.1c0 74.5 7.4 117.3 21.7 141.7 14 24.7 29.1 29.2 59.7 31.3C112 430.9 189.2 432 256.1 432c66.8 0 143.9-1.1 174.6-2.8 30.7-2.1 45.8-6.6 59.6-31.3C504.7 373.5 512 330.7 512 256.2c0 0 0-0.1 0-0.2 0 0 0-0.1 0-0.1C512 181.1 504.7 138.6 490.2 113.9zM192 352V160l160 96L192 352z"/>
  </symbol>

  <symbol id="flickr" viewBox="0 0 97.8 97.8">
    <path d="M48.9 0C21.9 0 0 21.9 0 48.9S21.9 97.8 48.9 97.8 97.8 75.9 97.8 48.9 75.9 0 48.9 0zM28.3 66.4c-8.9 0-16.1-7.8-16.1-17.5s7.2-17.5 16.1-17.5 16.1 7.8 16.1 17.5S37.2 66.4 28.3 66.4zM69 65.9c-9.2 0-16.6-7.7-16.6-17.3 0-9.5 7.4-17.3 16.6-17.3 9.2 0 16.6 7.7 16.6 17.3C85.6 58.2 78.2 65.9 69 65.9z"/>
  </symbol>

</svg>
